<?xml version="1.0" encoding="utf-8"?>
<!-- Generator: Adobe Illustrator 24.1.0, SVG Export Plug-In . SVG Version: 6.00 Build 0)  -->
<svg version="1.1" id="Layer_1" xmlns="http://www.w3.org/2000/svg" xmlns:xlink="http://www.w3.org/1999/xlink" x="0px" y="0px"
	 width="14px" height="13px" viewBox="0 0 14 13" style="enable-background:new 0 0 14 13;" xml:space="preserve">
<style type="text/css">
	.st0{fill:#FFFFFF;}
</style>
<desc>Created with Sketch.</desc>
<path class="st0" d="M10.8,0H3.2C1.7,0,0.5,1.2,0.5,2.7v7.6c0,1.5,1.2,2.7,2.7,2.7h7.6c1.5,0,2.7-1.2,2.7-2.7V2.7
	C13.5,1.2,12.3,0,10.8,0z M4.8,10.3H3.2v-6h1.6V10.3z M4,3.6c-0.5,0-0.9-0.4-0.9-1s0.4-1,0.9-1S5,2.2,5,2.7S4.5,3.6,4,3.6z
	 M11.3,10.3H9.7v-3c0-1.8-2.2-1.7-2.2,0v3H5.9v-6h1.6v1c0.8-1.4,3.8-1.5,3.8,1.3V10.3z"/>
</svg>
