<?xml version="1.0" encoding="utf-8"?>
<!-- Generator: Adobe Illustrator 24.0.0, SVG Export Plug-In . SVG Version: 6.00 Build 0)  -->
<svg version="1.1" id="Layer_1" xmlns="http://www.w3.org/2000/svg" xmlns:xlink="http://www.w3.org/1999/xlink" x="0px" y="0px"
	 width="15px" height="15px" viewBox="0 0 15 15" style="enable-background:new 0 0 15 15;" xml:space="preserve">
<style type="text/css">
	.st0{fill-rule:evenodd;clip-rule:evenodd;fill:#FFFFFF;}
</style>
<path id="icon-search" class="st0" d="M14.4,13.4l-3.2-3.2c0.8-1,1.3-2.3,1.3-3.7c0-3.3-2.7-6-6-6c-3.3,0-6,2.7-6,6c0,3.3,2.7,6,6,6
	c1.4,0,2.7-0.5,3.7-1.3l3.2,3.2c0.3,0.3,0.7,0.3,1,0C14.6,14.1,14.6,13.6,14.4,13.4z M9.7,9.7C9.7,9.7,9.7,9.7,9.7,9.7L9.7,9.7
	c-0.9,0.9-2,1.4-3.3,1.4C3.9,11,1.8,9,1.8,6.4c0-2.5,2.1-4.6,4.6-4.6C9,1.8,11,3.9,11,6.4C11,7.7,10.5,8.8,9.7,9.7z"/>
</svg>
