<?xml version="1.0" encoding="UTF-8"?>
<svg width="12px" height="12px" viewBox="0 0 12 12" version="1.1" xmlns="http://www.w3.org/2000/svg" xmlns:xlink="http://www.w3.org/1999/xlink">
    <!-- Generator: Sketch 60.1 (88133) - https://sketch.com -->
    <title>Facebook 2</title>
    <desc>Created with Sketch.</desc>
    <g id="Symbols" stroke="none" stroke-width="1" fill="none" fill-rule="evenodd">
        <g id="Sidebar" transform="translate(0.000000, -44.000000)" fill="#FFFFFF">
            <g id="Facebook-2">
                <g transform="translate(0.000000, 44.000000)">
                    <path d="M11.0321829,0.143965714 L1.13424,0.143965714 C0.605897143,0.143965714 0.178011429,0.571851429 0.178011429,1.10019429 L0.178011429,10.9981371 C0.178011429,11.5261371 0.605897143,11.9543657 1.13424,11.9543657 L6.67824,11.9543657 L6.67824,7.39299429 L5.67298286,7.39299429 L5.67298286,5.40030857 L6.67824,5.40030857 L6.67824,4.08579429 C6.67824,3.82522286 6.62681143,2.07973714 8.79264,2.07973714 L10.3221257,2.07973714 L10.3221257,4.07208 L8.99389714,4.07208 C8.78612571,4.07208 8.66166857,4.18625143 8.66166857,4.40430857 L8.66166857,5.40030857 L10.3221257,5.40030857 L9.98989714,7.39299429 L8.66166857,7.39299429 L8.66166857,11.9543657 L11.0321829,11.9543657 C11.5601829,11.9543657 11.9884114,11.5261371 11.9884114,10.9981371 L11.9884114,1.10019429 C11.9884114,0.571851429 11.5601829,0.143965714 11.0321829,0.143965714" id="Fill-133"></path>
                </g>
            </g>
        </g>
    </g>
</svg>