<?xml version="1.0" encoding="UTF-8"?>
<svg width="12px" height="13px" viewBox="0 0 12 13" version="1.1" xmlns="http://www.w3.org/2000/svg" xmlns:xlink="http://www.w3.org/1999/xlink">
    <!-- Generator: Sketch 60.1 (88133) - https://sketch.com -->
    <title>Instagram</title>
    <desc>Created with Sketch.</desc>
    <g id="Page-1" stroke="none" stroke-width="1" fill="none" fill-rule="evenodd">
        <g id="Menu" transform="translate(-192.000000, -570.000000)" fill="#FFFFFF">
            <g id="Group-2" transform="translate(123.000000, 570.000000)">
                <g id="Instagram" transform="translate(69.000000, 0.000000)">
                    <path d="M10.8865371,9.24381714 C10.8865371,10.5382457 9.92928,11.5971886 8.75910857,11.5971886 L3.44345143,11.5971886 C2.27328,11.5971886 1.31602286,10.5382457 1.31602286,9.24381714 L1.31602286,3.58287429 C1.31602286,2.28844571 2.27328,1.22950286 3.44345143,1.22950286 L8.75910857,1.22950286 C9.92928,1.22950286 10.8865371,2.28844571 10.8865371,3.58287429 L10.8865371,9.24381714 Z M8.85716571,0.0992457143 L3.34539429,0.0992457143 C1.65545143,0.0992457143 0.272708571,1.62916 0.272708571,3.49856 L0.272708571,9.32813143 C0.272708571,11.1979029 1.65545143,12.7278171 3.34539429,12.7278171 L8.85716571,12.7278171 C10.5471086,12.7278171 11.9298514,11.1979029 11.9298514,9.32813143 L11.9298514,3.49856 C11.9298514,1.62916 10.5471086,0.0992457143 8.85716571,0.0992457143 L8.85716571,0.0992457143 Z" id="Fill-13"></path>
                    <path d="M6.10062857,8.50623429 C5.05628571,8.50623429 4.20977143,7.56986286 4.20977143,6.41434857 C4.20977143,5.25883429 5.05628571,4.32209143 6.10062857,4.32209143 C7.14497143,4.32209143 7.99148571,5.25883429 7.99148571,6.41434857 C7.99148571,7.56986286 7.14497143,8.50623429 6.10062857,8.50623429 M6.10062857,3.17177714 C4.482,3.17177714 3.16988571,4.62332 3.16988571,6.41434857 C3.16988571,8.20500571 4.482,9.65692 6.10062857,9.65692 C7.71925714,9.65692 9.03137143,8.20500571 9.03137143,6.41434857 C9.03137143,4.62332 7.71925714,3.17177714 6.10062857,3.17177714" id="Fill-14"></path>
                    <path d="M9.85076571,2.99735429 C9.85076571,3.40146857 9.55453714,3.72944 9.18905143,3.72944 C8.82322286,3.72944 8.52733714,3.40146857 8.52733714,2.99735429 C8.52733714,2.59286857 8.82322286,2.26489714 9.18905143,2.26489714 C9.55453714,2.26489714 9.85076571,2.59286857 9.85076571,2.99735429" id="Fill-15"></path>
                </g>
            </g>
        </g>
    </g>
</svg>